# Blender 4.1.0
# www.blender.org
o roofs_1.011
v 0.500000 -0.500000 0.500001
v -10.000130 -0.500000 0.499999
v 0.500000 4.500000 0.500001
v -10.000130 4.500000 0.500000
v 0.499998 4.500000 14.250000
v -10.000132 4.500000 14.249999
v 0.499998 -0.500001 14.250000
v -10.000132 -0.500001 14.249998
v 0.085986 4.500000 0.914013
v -9.586116 4.500000 0.914012
v -9.586118 4.500000 13.749999
v 0.085984 4.500000 13.750000
v 0.085986 0.000000 0.914013
v -9.586116 0.000000 0.914011
v -9.586118 -0.000000 13.749998
v 0.085984 -0.000000 13.750000
vn -0.0000 -0.0000 -1.0000
vn -0.0000 1.0000 -0.0000
vn -0.0000 -0.0000 1.0000
vn -0.0000 -1.0000 -0.0000
vn -1.0000 -0.0000 -0.0000
vn 1.0000 -0.0000 -0.0000
vt 0.448248 0.859100
vt 0.895430 0.859100
vt 0.895430 0.964736
vt 0.448248 0.964736
vt 0.448248 0.411918
vt 0.448248 0.000000
vt 0.860165 0.000000
vt 0.860165 0.411918
vt 0.861240 0.447182
vt 0.861240 -0.000000
vt 0.966877 -0.000000
vt 0.966877 0.447182
vt 0.000000 0.447182
vt 0.447182 0.447182
vt 0.447182 0.894364
vt 0.000000 0.894364
vt 0.553884 0.411918
vt 0.553884 0.859100
vt 0.447182 1.000000
vt 0.000000 1.000000
vt 0.000000 0.000000
vt 0.447182 0.000000
vt 0.429550 0.017632
vt 0.017632 0.017632
vt 0.429550 0.429550
vt 0.017632 0.429550
vt 0.641988 0.830367
vt 0.641988 0.418449
vt 0.686067 0.418449
vt 0.686067 0.830367
vt 0.734028 0.417515
vt 0.734028 0.829432
vt 0.689950 0.829432
vt 0.689950 0.417515
vt 0.824685 0.417515
vt 0.824685 0.829432
vt 0.780606 0.829432
vt 0.780606 0.417515
vt 0.779357 0.417515
vt 0.779357 0.829432
vt 0.735278 0.829432
vt 0.735278 0.417515
s 0
f 1/1/1 2/2/1 4/3/1 3/4/1
f 13/5/2 14/6/2 15/7/2 16/8/2
f 5/9/3 6/10/3 8/11/3 7/12/3
f 7/13/4 8/14/4 2/15/4 1/16/4
f 2/1/5 8/5/5 6/17/5 4/18/5
f 7/16/6 1/15/6 3/19/6 5/20/6
f 3/21/2 4/22/2 10/23/2 9/24/2
f 4/22/2 6/14/2 11/25/2 10/23/2
f 6/14/2 5/13/2 12/26/2 11/25/2
f 5/13/2 3/21/2 9/24/2 12/26/2
f 9/27/3 10/28/3 14/29/3 13/30/3
f 10/31/6 11/32/6 15/33/6 14/34/6
f 11/35/1 12/36/1 16/37/1 15/38/1
f 12/39/5 9/40/5 13/41/5 16/42/5
