# Blender 4.1.0
# www.blender.org
mtllib BuildingTest.mtl
o roofs_1.014
v 0.000000 0.000000 20.249998
v 20.000130 0.000000 20.249998
v 0.000000 9.980412 20.250000
v 20.000130 9.980412 20.250000
v 0.000000 9.980411 0.249999
v 20.000130 9.980411 0.249999
v 0.000000 -0.000001 0.250000
v 20.000130 -0.000001 0.250000
v 0.414014 9.980412 19.835987
v 19.586117 9.980412 19.835987
v 19.586117 9.980411 0.749999
v 0.414014 9.980411 0.749999
v 0.414014 0.500000 19.835987
v 19.586117 0.500000 19.835987
v 19.586117 0.500000 0.750000
v 0.414014 0.500000 0.750000
v 0.000000 3.499999 10.000000
v 0.000000 3.499999 7.083999
v 0.000000 7.604000 9.999999
v 0.000000 7.603999 7.083999
v 0.414014 7.604000 9.999999
v 0.414014 7.603999 7.083999
v 0.414014 3.499999 7.083999
v 0.414014 3.499999 10.000000
v 0.000000 7.604000 13.499999
v 0.000000 7.604000 10.583999
v 0.000000 3.499999 10.584000
v 0.000000 3.500000 13.500000
v 0.414014 3.499999 10.584000
v 0.414014 3.500000 13.500000
v 0.414014 7.604000 13.499999
v 0.414014 7.604000 10.583999
vn -0.0000 -0.0000 1.0000
vn -0.0000 1.0000 -0.0000
vn -0.0000 -0.0000 -1.0000
vn -0.0000 -1.0000 -0.0000
vn 1.0000 -0.0000 -0.0000
vn -1.0000 -0.0000 -0.0000
vt 0.448248 0.859100
vt 0.895430 0.859100
vt 0.895430 0.964736
vt 0.448248 0.964736
vt 0.448248 0.411918
vt 0.448248 0.000000
vt 0.860165 0.000000
vt 0.860165 0.411918
vt 0.861240 0.447182
vt 0.861240 -0.000000
vt 0.966877 -0.000000
vt 0.966877 0.447182
vt 0.000000 0.447182
vt 0.447182 0.447182
vt 0.447182 0.894364
vt 0.000000 0.894364
vt 0.553884 0.411918
vt 0.553884 0.859100
vt 0.447182 1.000000
vt 0.000000 1.000000
vt 0.152802 0.974847
vt 0.218001 0.974847
vt 0.231059 0.974847
vt 0.296258 0.974847
vt 0.296258 0.931409
vt 0.231059 0.931409
vt 0.218001 0.931409
vt 0.152802 0.931409
vt 0.000000 0.000000
vt 0.447182 0.000000
vt 0.429550 0.017632
vt 0.017632 0.017632
vt 0.429550 0.429550
vt 0.017632 0.429550
vt 0.641988 0.830367
vt 0.641988 0.418449
vt 0.686067 0.418449
vt 0.686067 0.830367
vt 0.734028 0.417515
vt 0.734028 0.829432
vt 0.689950 0.829432
vt 0.689950 0.417515
vt 0.824685 0.417515
vt 0.824685 0.829432
vt 0.780606 0.829432
vt 0.780606 0.417515
vt 0.768308 0.617150
vt 0.768308 0.554216
vt 0.779357 0.417515
vt 0.779357 0.829432
vt 0.735278 0.829432
vt 0.735278 0.417515
vt 0.749226 0.554216
vt 0.749226 0.617150
vt 0.749226 0.629754
vt 0.749226 0.692688
vt 0.768308 0.692688
vt 0.768308 0.629754
vt 0.375000 0.371898
vt 0.375000 0.336207
vt 0.375000 0.913793
vt 0.375000 0.878102
vt 0.211207 0.500000
vt 0.246898 0.500000
vt 0.788793 0.500000
vt 0.753102 0.500000
s 0
usemtl initialShadingGroup.016
f 1/1/1 2/2/1 4/3/1 3/4/1
f 13/5/2 14/6/2 15/7/2 16/8/2
f 5/9/3 6/10/3 8/11/3 7/12/3
f 7/13/4 8/14/4 2/15/4 1/16/4
f 2/1/5 8/5/5 6/17/5 4/18/5
f 1/15/6 3/19/6 5/20/6 20/21/6 19/22/6 26/23/6 25/24/6 28/25/6 27/26/6 17/27/6 18/28/6 7/16/6
f 19/22/6 17/27/6 27/26/6 26/23/6
f 5/20/6 7/16/6 18/28/6 20/21/6
f 3/29/2 4/30/2 10/31/2 9/32/2
f 4/30/2 6/14/2 11/33/2 10/31/2
f 6/14/2 5/13/2 12/34/2 11/33/2
f 5/13/2 3/29/2 9/32/2 12/34/2
f 9/35/3 10/36/3 14/37/3 13/38/3
f 10/39/6 11/40/6 15/41/6 14/42/6
f 11/43/1 12/44/1 16/45/1 15/46/1
f 21/47/5 22/48/5 12/49/5 9/50/5 13/51/5 16/52/5 23/53/5 24/54/5 29/55/5 30/56/5 31/57/5 32/58/5
f 29/55/5 24/54/5 21/47/5 32/58/5
f 23/53/5 16/52/5 12/49/5 22/48/5
f 22/59/1 20/60/1 18/60/1 23/59/1
f 19/61/3 21/62/3 24/62/3 17/61/3
f 17/63/2 24/64/2 23/64/2 18/63/2
f 19/65/4 20/65/4 22/66/4 21/66/4
f 32/59/1 26/60/1 27/60/1 29/59/1
f 30/62/3 28/61/3 25/61/3 31/62/3
f 28/63/2 30/64/2 29/64/2 27/63/2
f 25/65/4 26/65/4 32/66/4 31/66/4
